<svg width="25" height="25" viewBox="0 0 25 25" fill="none" xmlns="http://www.w3.org/2000/svg">
<g id="User Interface / Bathtub">
<path id="Vector" d="M22.9165 12.5001H5.20817V6.67733C5.20452 6.3022 5.30352 5.93321 5.49447 5.61029C5.68541 5.28737 5.96103 5.02282 6.2915 4.84526C6.65693 4.64722 7.07336 4.56333 7.48696 4.60442C7.27644 5.24198 7.24654 5.92538 7.40056 6.57889C7.55457 7.2324 7.88651 7.83052 8.35958 8.30697L9.46436 9.41171C9.56106 9.50845 9.67587 9.5852 9.80224 9.63756C9.92861 9.68992 10.0641 9.71687 10.2008 9.71687C10.3376 9.71687 10.4731 9.68992 10.5995 9.63756C10.7258 9.5852 10.8406 9.50845 10.9373 9.41171L14.6198 5.72925C14.7165 5.63255 14.7933 5.51773 14.8457 5.39136C14.898 5.26499 14.925 5.12955 14.925 4.99276C14.925 4.85597 14.898 4.72052 14.8457 4.59415C14.7933 4.46778 14.7165 4.35297 14.6198 4.25627L13.5151 3.15153C12.9002 2.53942 12.0869 2.1671 11.2217 2.10167C10.3566 2.03625 9.49653 2.28204 8.7966 2.79473C8.16552 2.54826 7.48379 2.4597 6.81068 2.53675C6.13758 2.6138 5.49349 2.85412 4.93444 3.23682C4.37538 3.61953 3.91829 4.13301 3.60291 4.73263C3.28753 5.33225 3.12341 5.99983 3.12484 6.67733V12.5001H2.08317C1.8069 12.5001 1.54195 12.6098 1.3466 12.8052C1.15125 13.0005 1.0415 13.2655 1.0415 13.5417C1.0415 13.818 1.15125 14.083 1.3466 14.2783C1.54195 14.4737 1.8069 14.5834 2.08317 14.5834H3.12484V17.7084C3.12682 18.3526 3.32814 18.9803 3.70116 19.5054C4.07418 20.0306 4.60061 20.4274 5.20817 20.6414V21.8751C5.20817 22.1513 5.31792 22.4163 5.51327 22.6117C5.70862 22.807 5.97357 22.9167 6.24984 22.9167C6.5261 22.9167 6.79106 22.807 6.98641 22.6117C7.18176 22.4163 7.2915 22.1513 7.2915 21.8751V20.8334H17.7082V21.8751C17.7082 22.1513 17.8179 22.4163 18.0133 22.6117C18.2086 22.807 18.4736 22.9167 18.7498 22.9167C19.0261 22.9167 19.2911 22.807 19.4864 22.6117C19.6818 22.4163 19.7915 22.1513 19.7915 21.8751V20.6415C20.3991 20.4275 20.9255 20.0306 21.2985 19.5055C21.6715 18.9803 21.8729 18.3526 21.8748 17.7084V14.5834H22.9165C23.1928 14.5834 23.4577 14.4737 23.6531 14.2783C23.8484 14.083 23.9582 13.818 23.9582 13.5417C23.9582 13.2655 23.8484 13.0005 23.6531 12.8052C23.4577 12.6098 23.1928 12.5001 22.9165 12.5001ZM9.8326 4.62451C10.1259 4.33202 10.5231 4.16777 10.9373 4.16777C11.3515 4.16777 11.7488 4.33202 12.0421 4.62451L12.4103 4.99276L10.2009 7.20223L9.83263 6.83399C9.53998 6.54081 9.37562 6.14349 9.37561 5.72925C9.37561 5.31501 9.53996 4.91769 9.8326 4.62451ZM19.7915 17.7084C19.7913 17.9846 19.6815 18.2495 19.4862 18.4448C19.2909 18.6401 19.026 18.7499 18.7498 18.7501H6.24984C5.97363 18.7499 5.70878 18.6401 5.51347 18.4448C5.31816 18.2495 5.20836 17.9846 5.20817 17.7084V14.5834H19.7915V17.7084Z" fill="#956446"/>
</g>
</svg>
