<svg width="25" height="25" viewBox="0 0 25 25" fill="none" xmlns="http://www.w3.org/2000/svg">
<g id="User Interface / Bed">
<path id="Vector" d="M7.29163 13.0196C7.90969 13.0196 8.51388 12.8364 9.02778 12.493C9.54169 12.1497 9.94223 11.6617 10.1788 11.0907C10.4153 10.5197 10.4772 9.89144 10.3566 9.2853C10.236 8.67916 9.93837 8.12238 9.50134 7.68538C9.0643 7.24838 8.50747 6.95078 7.90128 6.83021C7.29509 6.70964 6.66676 6.77152 6.09574 7.00802C5.52472 7.24453 5.03666 7.64503 4.69328 8.15889C4.3499 8.67275 4.16663 9.27689 4.16663 9.8949C4.16663 10.7236 4.49587 11.5184 5.08192 12.1044C5.66797 12.6904 6.46282 13.0196 7.29163 13.0196ZM7.29163 8.85332C7.49765 8.85332 7.69904 8.91441 7.87035 9.02886C8.04165 9.14331 8.17516 9.30598 8.254 9.49631C8.33284 9.68663 8.35347 9.89606 8.31328 10.0981C8.27309 10.3001 8.17388 10.4857 8.0282 10.6314C7.88252 10.7771 7.69691 10.8763 7.49485 10.9165C7.29278 10.9567 7.08334 10.936 6.893 10.8572C6.70266 10.7784 6.53997 10.6449 6.42551 10.4736C6.31105 10.3023 6.24996 10.1009 6.24996 9.8949C6.24996 9.61866 6.35971 9.35373 6.55506 9.15839C6.75041 8.96306 7.01536 8.85332 7.29163 8.85332ZM20.8333 6.77017H12.5C12.2237 6.77017 11.9587 6.87991 11.7634 7.07524C11.568 7.27057 11.4583 7.5355 11.4583 7.81175V14.0612H3.12496V5.72859C3.12496 5.45235 3.01521 5.18742 2.81986 4.99208C2.62451 4.79675 2.35956 4.68701 2.08329 4.68701C1.80703 4.68701 1.54207 4.79675 1.34672 4.99208C1.15137 5.18742 1.04163 5.45235 1.04163 5.72859V19.2691C1.04163 19.5453 1.15137 19.8103 1.34672 20.0056C1.54207 20.2009 1.80703 20.3107 2.08329 20.3107C2.35956 20.3107 2.62451 20.2009 2.81986 20.0056C3.01521 19.8103 3.12496 19.5453 3.12496 19.2691V16.1444H21.875V19.2691C21.875 19.5453 21.9847 19.8103 22.1801 20.0056C22.3754 20.2009 22.6404 20.3107 22.9166 20.3107C23.1929 20.3107 23.4578 20.2009 23.6532 20.0056C23.8485 19.8103 23.9583 19.5453 23.9583 19.2691V9.8949C23.9583 9.06617 23.6291 8.27138 23.043 7.68538C22.457 7.09938 21.6621 6.77017 20.8333 6.77017ZM21.875 14.0612H13.5416V8.85332H20.8333C21.1096 8.85332 21.3745 8.96306 21.5699 9.15839C21.7652 9.35373 21.875 9.61866 21.875 9.8949V14.0612Z" fill="#875B52"/>
</g>
</svg>
