<svg width="25" height="25" viewBox="0 0 25 25" fill="none" xmlns="http://www.w3.org/2000/svg">
<g id="Weather / cold temperature">
<path id="Vector" d="M22.0418 16.8022L19.9585 15.6042L20.8856 15.3542C21.0217 15.3225 21.1501 15.2637 21.2631 15.1813C21.376 15.099 21.4712 14.9947 21.543 14.8747C21.6148 14.7548 21.6617 14.6216 21.681 14.4831C21.7002 14.3447 21.6914 14.2037 21.655 14.0688C21.6187 13.9338 21.5555 13.8075 21.4693 13.6974C21.3831 13.5874 21.2756 13.4958 21.1533 13.4281C21.0309 13.3605 20.8962 13.3182 20.7572 13.3037C20.6181 13.2892 20.4776 13.3029 20.3439 13.3438L17.4064 14.1355L14.5835 12.5001L17.4064 10.8647L20.3439 11.6563H20.6148C20.891 11.6922 21.1702 11.6169 21.391 11.447C21.6117 11.277 21.7559 11.0263 21.7918 10.7501C21.8278 10.4738 21.7524 10.1946 21.5825 9.97385C21.4125 9.7531 21.1619 9.60891 20.8856 9.573L19.9585 9.37508L22.0418 8.17717C22.1608 8.10877 22.2652 8.0176 22.349 7.90887C22.4328 7.80013 22.4943 7.67596 22.5301 7.54345C22.5659 7.41093 22.5752 7.27266 22.5576 7.13653C22.5399 7.00041 22.4956 6.86909 22.4273 6.75008C22.3589 6.63107 22.2677 6.5267 22.159 6.44292C22.0502 6.35914 21.9261 6.2976 21.7935 6.26182C21.661 6.22603 21.5227 6.21669 21.3866 6.23434C21.2505 6.25198 21.1192 6.29627 21.0002 6.36467L18.7502 7.67717L19.0627 6.52092C19.1036 6.38726 19.1173 6.24672 19.1028 6.10767C19.0883 5.96862 19.046 5.83391 18.9784 5.71157C18.9107 5.58923 18.8191 5.48175 18.7091 5.39555C18.599 5.30934 18.4727 5.24617 18.3377 5.20981C18.2028 5.17344 18.0618 5.16461 17.9234 5.18385C17.7849 5.2031 17.6517 5.25002 17.5318 5.32182C17.4118 5.39361 17.3075 5.48882 17.2252 5.60177C17.1428 5.71472 17.084 5.8431 17.0523 5.97925L16.1981 9.10425L13.5418 10.698V7.43758L15.6981 5.28133C15.8921 5.08616 16.001 4.82215 16.001 4.54696C16.001 4.27176 15.8921 4.00775 15.6981 3.81258C15.6012 3.71495 15.486 3.63745 15.3591 3.58457C15.2322 3.53169 15.096 3.50446 14.9585 3.50446C14.821 3.50446 14.6848 3.53169 14.5579 3.58457C14.431 3.63745 14.3158 3.71495 14.2189 3.81258L13.5418 4.48967V2.08341C13.5418 1.80715 13.4321 1.5422 13.2367 1.34685C13.0414 1.15149 12.7764 1.04175 12.5002 1.04175C12.2239 1.04175 11.959 1.15149 11.7636 1.34685C11.5682 1.5422 11.4585 1.80715 11.4585 2.08341V4.65633L10.6148 3.81258C10.5179 3.71495 10.4027 3.63745 10.2758 3.58457C10.1488 3.53169 10.0127 3.50446 9.87517 3.50446C9.73766 3.50446 9.60151 3.53169 9.47457 3.58457C9.34763 3.63745 9.23242 3.71495 9.13559 3.81258C8.94158 4.00775 8.83268 4.27176 8.83268 4.54696C8.83268 4.82215 8.94158 5.08616 9.13559 5.28133L11.4585 7.60425V10.7292L8.78142 9.14592L7.92725 6.02092C7.89553 5.88476 7.83673 5.75639 7.75435 5.64344C7.67197 5.53049 7.5677 5.43528 7.44774 5.36348C7.32779 5.29168 7.19461 5.24476 7.05614 5.22552C6.91767 5.20628 6.77675 5.2151 6.64176 5.25147C6.50678 5.28784 6.38049 5.35101 6.27044 5.43721C6.16038 5.52342 6.0688 5.63089 6.00115 5.75324C5.93351 5.87558 5.89118 6.01029 5.8767 6.14934C5.86221 6.28838 5.87586 6.42892 5.91684 6.56258L6.25017 7.67717L4.00017 6.3855C3.88116 6.3171 3.74984 6.27282 3.61372 6.25517C3.47759 6.23752 3.33932 6.24686 3.20681 6.28265C3.07429 6.31844 2.95012 6.37998 2.84138 6.46375C2.73265 6.54753 2.64148 6.6519 2.57309 6.77092C2.50469 6.88993 2.4604 7.02124 2.44276 7.15737C2.42511 7.29349 2.43445 7.43176 2.47024 7.56428C2.54252 7.83191 2.71815 8.05986 2.9585 8.198L5.04184 9.37508L4.16684 9.64592C3.89057 9.68183 3.63988 9.82602 3.46993 10.0468C3.29997 10.2675 3.22467 10.5467 3.26059 10.823C3.2965 11.0993 3.44069 11.35 3.66144 11.5199C3.88218 11.6899 4.1614 11.7652 4.43767 11.7292H4.7085L7.646 10.9376L10.4168 12.5001L7.59392 14.1355L4.65642 13.3438C4.51859 13.2927 4.37148 13.2712 4.22478 13.281C4.07808 13.2907 3.9351 13.3314 3.80525 13.4004C3.67539 13.4693 3.56161 13.565 3.47138 13.6811C3.38115 13.7972 3.31652 13.931 3.28173 14.0739C3.24694 14.2167 3.24279 14.3653 3.26954 14.5099C3.2963 14.6545 3.35335 14.7917 3.43696 14.9127C3.52057 15.0336 3.62883 15.1355 3.75463 15.2116C3.88042 15.2877 4.02091 15.3363 4.16684 15.3542L5.09392 15.6042L3.01059 16.8022C2.77023 16.9403 2.5946 17.1683 2.52232 17.4359C2.45004 17.7035 2.48704 17.9889 2.62517 18.2292C2.7633 18.4696 2.99126 18.6452 3.25889 18.7175C3.52652 18.7898 3.8119 18.7528 4.05225 18.6147L6.25017 17.323L5.93767 18.4792C5.89638 18.6126 5.88231 18.7529 5.89629 18.8918C5.91027 19.0306 5.95203 19.1653 6.01907 19.2877C6.08612 19.4102 6.17709 19.5179 6.28657 19.6044C6.39606 19.691 6.52183 19.7547 6.65642 19.7917C6.74641 19.802 6.83727 19.802 6.92725 19.7917C7.16242 19.7998 7.39339 19.728 7.58254 19.588C7.77169 19.4481 7.90788 19.2482 7.96892 19.0209L8.82309 15.8959L11.4585 14.3022V17.5626L9.30225 19.7188C9.10824 19.914 8.99934 20.178 8.99934 20.4532C8.99934 20.7284 9.10824 20.9924 9.30225 21.1876C9.39873 21.286 9.51377 21.3643 9.64073 21.418C9.76768 21.4716 9.90402 21.4995 10.0418 21.5001C10.1797 21.4995 10.316 21.4716 10.4429 21.418C10.5699 21.3643 10.6849 21.286 10.7814 21.1876L11.4585 20.5105V22.9167C11.4585 23.193 11.5682 23.458 11.7636 23.6533C11.959 23.8487 12.2239 23.9584 12.5002 23.9584C12.7764 23.9584 13.0414 23.8487 13.2367 23.6533C13.4321 23.458 13.5418 23.193 13.5418 22.9167V20.3438L14.3856 21.1876C14.4824 21.2852 14.5976 21.3627 14.7246 21.4156C14.8515 21.4685 14.9877 21.4957 15.1252 21.4957C15.2627 21.4957 15.3988 21.4685 15.5258 21.4156C15.6527 21.3627 15.7679 21.2852 15.8648 21.1876C16.0588 20.9924 16.1677 20.7284 16.1677 20.4532C16.1677 20.178 16.0588 19.914 15.8648 19.7188L13.5418 17.3959V14.2709L16.2189 15.823L17.0731 18.948C17.1341 19.1753 17.2703 19.3751 17.4595 19.5151C17.6486 19.6551 17.8796 19.7269 18.1148 19.7188C18.2047 19.7291 18.2956 19.7291 18.3856 19.7188C18.5186 19.6838 18.6433 19.6228 18.7526 19.5392C18.8619 19.4557 18.9536 19.3514 19.0223 19.2323C19.0911 19.1132 19.1356 18.9816 19.1532 18.8452C19.1709 18.7088 19.1613 18.5703 19.1252 18.4376L18.7502 17.323L20.9793 18.6147C21.0983 18.6831 21.2297 18.7274 21.3658 18.745C21.5019 18.7626 21.6402 18.7533 21.7727 18.7175C21.9052 18.6817 22.0294 18.6202 22.1381 18.5364C22.2469 18.4526 22.338 18.3483 22.4064 18.2292C22.4748 18.1102 22.5191 17.9789 22.5367 17.8428C22.5544 17.7067 22.5451 17.5684 22.5093 17.4359C22.4735 17.3034 22.4119 17.1792 22.3282 17.0705C22.2444 16.9617 22.14 16.8706 22.021 16.8022H22.0418Z" fill="#956446"/>
</g>
</svg>
