<svg width="25" height="21" viewBox="0 0 25 21" fill="none" xmlns="http://www.w3.org/2000/svg">
<g id="&#240;&#159;&#166;&#134; icon &#34;slippers&#34;">
<path id="Vector" d="M10.1556 6.04377H8.48889V4.42153C8.39181 2.87317 7.13804 1.65487 5.60555 1.65487C4.07307 1.65487 2.81927 2.87317 2.72264 4.41287L2.72222 4.42153V6.04377H1.05554V4.42153C1.17873 1.9535 3.16869 0 5.60555 0C8.04241 0 10.0324 1.9535 10.1551 4.41035L10.1556 4.42156L10.1556 6.04377ZM5.61112 20.8333H5.6043C3.1759 20.8333 1.19128 18.8933 1.05609 16.4485L1.05554 16.4363V11.5117H2.72222V16.3648C2.8193 17.9132 4.07307 19.1315 5.60555 19.1315C7.13804 19.1315 8.39183 17.9132 8.48846 16.3735L8.48886 16.3648V11.5117H10.1555V16.4363C10.0199 18.8918 8.03765 20.8309 5.61132 20.8333H5.61107L5.61112 20.8333ZM23.9444 6.04377H22.2778V4.42153C22.1807 2.87317 20.9269 1.65487 19.3944 1.65487C17.8619 1.65487 16.6081 2.87314 16.5115 4.41287L16.5111 4.42153V6.04377H14.8444V4.42153C14.9676 1.9535 16.9576 0 19.3944 0C21.8313 0 23.8212 1.9535 23.944 4.41035L23.9444 4.42156V6.04377ZM19.3889 20.8333H19.3887C16.9603 20.8333 14.9757 18.8933 14.8405 16.4485L14.84 16.4363V11.5117H16.5067V16.3648C16.6038 17.9132 17.8575 19.1315 19.39 19.1315C20.9225 19.1315 22.1763 17.9132 22.2729 16.3735L22.2733 16.3648V11.5117H23.94V16.4363C23.8043 18.8934 21.8197 20.8333 19.3913 20.8333H19.3888H19.3889ZM0 5.19298H11.2111V12.3058H0V5.19298ZM9.54445 6.89461H1.66665V10.6042H9.54445V6.89461ZM13.7889 5.19295H25V12.3058H13.7889L13.7889 5.19295ZM23.3333 6.89461H15.4555V10.6042H23.3333V6.89461Z" fill="#956446"/>
</g>
</svg>
