<svg width="25" height="26" viewBox="0 0 25 26" fill="none" xmlns="http://www.w3.org/2000/svg">
<path d="M22.026 16.6883H19.7626V14.5122H22.026C22.4687 14.511 22.8276 14.1537 22.8313 13.7117V13.7114V13.7061C22.8313 13.3818 22.6456 13.1008 22.3747 12.9639L22.3699 12.9617L12.4937 8.49293L2.63919 12.9628C2.36356 13.1017 2.17779 13.3824 2.17779 13.7065V13.7105V13.7103C2.18087 14.1531 2.53996 14.511 2.98293 14.5122H5.22469V16.6884H2.98305C1.33452 16.6836 0 15.3462 0 13.6972C0 12.5117 0.689735 11.4873 1.68985 11.0033L1.70767 10.9955L1.72835 10.9857L12.4936 6.10354L23.3014 10.9999C24.3144 11.4935 25 12.5153 25 13.6973C25 15.3431 23.6706 16.6785 22.027 16.6884H22.026L22.026 16.6883ZM13.5818 7.29821H11.4055V6.99902C11.4663 5.73964 12.1211 4.64503 13.094 3.98277L13.1074 3.97415C13.3615 3.7925 13.5251 3.49848 13.5251 3.16623C13.5251 2.61941 13.0817 2.17609 12.5348 2.17609C11.9879 2.17609 11.5446 2.61939 11.5446 3.16626C11.5446 3.17143 11.5447 3.17658 11.5447 3.18174V3.18095L9.36835 3.2136C9.36816 3.19953 9.36804 3.18293 9.36804 3.1663C9.36804 1.41759 10.7857 0 12.5346 0C14.2835 0 15.7012 1.41759 15.7012 3.1663C15.7012 4.23811 15.1686 5.18555 14.3536 5.75842L14.3435 5.76514L14.325 5.7771C13.8993 6.06491 13.6147 6.53367 13.582 7.07046L13.5818 7.07517L13.5818 7.29821ZM7.30196 12.4884H17.6951C19.4432 12.4903 20.8598 13.9067 20.8617 15.6545V25.0013H4.13646V15.572C4.18261 13.8592 5.58217 12.4884 7.30196 12.4884ZM18.6853 22.8251V15.6547C18.6847 15.1081 18.2417 14.6652 17.6952 14.6645H7.2918C6.76007 14.6645 6.32734 15.0882 6.31281 15.6164V22.8252L18.6853 22.8251Z" fill="#875B52"/>
</svg>
