<svg width="25" height="25" viewBox="0 0 25 25" fill="none" xmlns="http://www.w3.org/2000/svg">
<g id="Weather / windy">
<path id="Vector" d="M3.64567 9.375C3.85169 9.375 4.05309 9.31391 4.22439 9.19945C4.39569 9.08499 4.5292 8.9223 4.60805 8.73196C4.68689 8.54162 4.70752 8.33218 4.66732 8.13011C4.62713 7.92805 4.52792 7.74244 4.38224 7.59676C4.23656 7.45108 4.05095 7.35187 3.84889 7.31168C3.64683 7.27149 3.43738 7.29212 3.24704 7.37096C3.0567 7.4498 2.89402 7.58331 2.77956 7.75461C2.6651 7.92592 2.604 8.12731 2.604 8.33333C2.604 8.6096 2.71375 8.87455 2.9091 9.0699C3.10445 9.26525 3.3694 9.375 3.64567 9.375ZM7.81234 9.375H15.104C15.9328 9.375 16.7277 9.04576 17.3137 8.45971C17.8998 7.87366 18.229 7.0788 18.229 6.25C18.229 5.4212 17.8998 4.62634 17.3137 4.04029C16.7277 3.45424 15.9328 3.125 15.104 3.125C14.556 3.12727 14.0179 3.27077 13.5415 3.54167C13.4221 3.60972 13.3174 3.70071 13.2334 3.80941C13.1493 3.9181 13.0876 4.04235 13.0518 4.175C13.016 4.30764 13.0067 4.44606 13.0246 4.58229C13.0425 4.71852 13.0872 4.84986 13.1561 4.96875C13.225 5.08724 13.3166 5.19097 13.4257 5.27398C13.5348 5.35699 13.6592 5.41765 13.7918 5.45249C13.9244 5.48733 14.0625 5.49565 14.1983 5.47699C14.3341 5.45833 14.4649 5.41305 14.5832 5.34375C14.7434 5.25753 14.9221 5.21108 15.104 5.20833C15.3803 5.20833 15.6452 5.31808 15.8406 5.51343C16.0359 5.70878 16.1457 5.97373 16.1457 6.25C16.1457 6.52627 16.0359 6.79122 15.8406 6.98657C15.6452 7.18192 15.3803 7.29167 15.104 7.29167H7.81234C7.53607 7.29167 7.27112 7.40141 7.07577 7.59676C6.88042 7.79211 6.77067 8.05707 6.77067 8.33333C6.77067 8.6096 6.88042 8.87455 7.07577 9.0699C7.27112 9.26525 7.53607 9.375 7.81234 9.375ZM3.64567 13.5417H10.9373C11.2136 13.5417 11.4786 13.4319 11.6739 13.2366C11.8693 13.0412 11.979 12.7763 11.979 12.5C11.979 12.2237 11.8693 11.9588 11.6739 11.7634C11.4786 11.5681 11.2136 11.4583 10.9373 11.4583H3.64567C3.3694 11.4583 3.10445 11.5681 2.9091 11.7634C2.71375 11.9588 2.604 12.2237 2.604 12.5C2.604 12.7763 2.71375 13.0412 2.9091 13.2366C3.10445 13.4319 3.3694 13.5417 3.64567 13.5417ZM21.354 9.375C21.56 9.375 21.7614 9.31391 21.9327 9.19945C22.104 9.08499 22.2375 8.9223 22.3164 8.73196C22.3952 8.54162 22.4158 8.33218 22.3757 8.13011C22.3355 7.92805 22.2363 7.74244 22.0906 7.59676C21.9449 7.45108 21.7593 7.35187 21.5572 7.31168C21.3552 7.27149 21.1457 7.29212 20.9554 7.37096C20.765 7.4498 20.6024 7.58331 20.4879 7.75461C20.3734 7.92592 20.3123 8.12731 20.3123 8.33333C20.3123 8.6096 20.4221 8.87455 20.6174 9.0699C20.8128 9.26525 21.0777 9.375 21.354 9.375ZM19.2707 11.4583H15.104C14.8277 11.4583 14.5628 11.5681 14.3674 11.7634C14.1721 11.9588 14.0623 12.2237 14.0623 12.5C14.0623 12.7763 14.1721 13.0412 14.3674 13.2366C14.5628 13.4319 14.8277 13.5417 15.104 13.5417H19.2707C19.5469 13.5417 19.8119 13.6514 20.0072 13.8468C20.2026 14.0421 20.3123 14.3071 20.3123 14.5833C20.3123 14.8596 20.2026 15.1246 20.0072 15.3199C19.8119 15.5153 19.5469 15.625 19.2707 15.625C18.9944 15.625 18.7295 15.7347 18.5341 15.9301C18.3388 16.1254 18.229 16.3904 18.229 16.6667C18.229 16.9429 18.3388 17.2079 18.5341 17.4032C18.7295 17.5986 18.9944 17.7083 19.2707 17.7083C20.0995 17.7083 20.8943 17.3791 21.4804 16.793C22.0664 16.207 22.3957 15.4121 22.3957 14.5833C22.3957 13.7545 22.0664 12.9597 21.4804 12.3736C20.8943 11.7876 20.0995 11.4583 19.2707 11.4583ZM13.0207 15.625H8.854C8.57774 15.625 8.31279 15.7347 8.11743 15.9301C7.92208 16.1254 7.81234 16.3904 7.81234 16.6667C7.81234 16.9429 7.92208 17.2079 8.11743 17.4032C8.31279 17.5986 8.57774 17.7083 8.854 17.7083H13.0207C13.2969 17.7083 13.5619 17.8181 13.7572 18.0134C13.9526 18.2088 14.0623 18.4737 14.0623 18.75C14.0623 19.0263 13.9526 19.2912 13.7572 19.4866C13.5619 19.6819 13.2969 19.7917 13.0207 19.7917C12.8387 19.7889 12.6601 19.7425 12.4998 19.6562C12.3813 19.5809 12.2487 19.5303 12.1101 19.5075C11.9714 19.4847 11.8296 19.4901 11.6932 19.5236C11.5567 19.557 11.4284 19.6177 11.3161 19.702C11.2037 19.7863 11.1095 19.8924 11.0392 20.014C10.9689 20.1357 10.9239 20.2703 10.9069 20.4097C10.89 20.5492 10.9014 20.6906 10.9406 20.8256C10.9797 20.9605 11.0458 21.0861 11.1347 21.1948C11.2237 21.3036 11.3337 21.3932 11.4582 21.4583C11.9345 21.7292 12.4727 21.8727 13.0207 21.875C13.8495 21.875 14.6443 21.5458 15.2304 20.9597C15.8164 20.3737 16.1457 19.5788 16.1457 18.75C16.1457 17.9212 15.8164 17.1263 15.2304 16.5403C14.6443 15.9542 13.8495 15.625 13.0207 15.625ZM4.68734 15.625H3.64567C3.3694 15.625 3.10445 15.7347 2.9091 15.9301C2.71375 16.1254 2.604 16.3904 2.604 16.6667C2.604 16.9429 2.71375 17.2079 2.9091 17.4032C3.10445 17.5986 3.3694 17.7083 3.64567 17.7083H4.68734C4.9636 17.7083 5.22856 17.5986 5.42391 17.4032C5.61926 17.2079 5.729 16.9429 5.729 16.6667C5.729 16.3904 5.61926 16.1254 5.42391 15.9301C5.22856 15.7347 4.9636 15.625 4.68734 15.625Z" fill="#956446"/>
</g>
</svg>
